<svg width="187" height="44" viewBox="0 0 187 44" fill="none" xmlns="http://www.w3.org/2000/svg">
<circle cx="22" cy="22" r="19" fill="white" stroke="#4A3755" stroke-width="5"/>
<path d="M3.00001 22C3.00001 19.5049 3.49146 17.0342 4.4463 14.729C5.40113 12.4238 6.80067 10.3293 8.56498 8.56497C10.3293 6.80066 12.4238 5.40113 14.729 4.44629C17.0342 3.49145 19.5049 3 22 3C24.4951 3 26.9658 3.49145 29.271 4.44629C31.5762 5.40113 33.6707 6.80066 35.435 8.56498C37.1993 10.3293 38.5989 12.4238 39.5537 14.729C40.5086 17.0342 41 19.5049 41 22L22 22L3.00001 22Z" fill="#E5578A" stroke="#4A3755" stroke-width="5"/>
<circle cx="21.9999" cy="22" r="4.4604" fill="white" stroke="#4A3755" stroke-width="5"/>
<path d="M64.552 22.296C64.552 23.064 64.36 23.768 63.976 24.408C63.6133 25.048 63.112 25.56 62.472 25.944C61.832 26.328 61.1173 26.52 60.328 26.52H54.44C54.184 26.52 54.056 26.6587 54.056 26.936V33.528C54.056 33.9333 53.9067 34.2853 53.608 34.584C53.3307 34.8613 52.9893 35 52.584 35H51.72C51.3147 35 50.9627 34.8613 50.664 34.584C50.3867 34.2853 50.248 33.9333 50.248 33.528V14.84C50.248 14.4133 50.3867 14.0613 50.664 13.784C50.9627 13.5067 51.3147 13.368 51.72 13.368H60.328C61.1173 13.368 61.832 13.56 62.472 13.944C63.112 14.328 63.6133 14.84 63.976 15.48C64.36 16.12 64.552 16.8347 64.552 17.624V22.296ZM60.776 22.296V17.624C60.776 17.3253 60.6267 17.176 60.328 17.176H54.44C54.184 17.176 54.056 17.3147 54.056 17.592V22.296C54.056 22.5733 54.184 22.712 54.44 22.712H60.328C60.6267 22.712 60.776 22.5733 60.776 22.296ZM81.7798 30.776C81.7798 31.544 81.5878 32.248 81.2038 32.888C80.8198 33.528 80.3078 34.04 79.6678 34.424C79.0278 34.808 78.3238 35 77.5558 35H71.4118C70.6438 35 69.9291 34.808 69.2678 34.424C68.6278 34.04 68.1158 33.528 67.7318 32.888C67.3478 32.248 67.1558 31.544 67.1558 30.776V17.624C67.1558 16.8347 67.3478 16.12 67.7318 15.48C68.1158 14.84 68.6278 14.328 69.2678 13.944C69.9291 13.56 70.6438 13.368 71.4118 13.368H77.5558C78.3238 13.368 79.0278 13.56 79.6678 13.944C80.3078 14.328 80.8198 14.84 81.2038 15.48C81.5878 16.12 81.7798 16.8347 81.7798 17.624V30.776ZM77.9718 30.776V17.624C77.9718 17.3253 77.8331 17.176 77.5558 17.176H71.4118C71.3051 17.176 71.1984 17.2187 71.0918 17.304C71.0064 17.3893 70.9638 17.496 70.9638 17.624V30.776C70.9638 30.8827 71.0064 30.9893 71.0918 31.096C71.1984 31.1813 71.3051 31.224 71.4118 31.224H77.5558C77.6624 31.224 77.7584 31.1813 77.8438 31.096C77.9291 30.9893 77.9718 30.8827 77.9718 30.776ZM98.1338 14.232C98.2404 14.488 98.2724 14.7653 98.2298 15.064C98.2084 15.3413 98.0911 15.5973 97.8778 15.832L90.5498 23.896C90.3578 24.088 90.3578 24.2907 90.5498 24.504L97.8778 32.536C98.0911 32.7493 98.2084 33.0053 98.2298 33.304C98.2724 33.5813 98.2404 33.848 98.1338 34.104C98.0271 34.3813 97.8458 34.6053 97.5898 34.776C97.3551 34.9253 97.0991 35 96.8218 35H95.6058C95.2218 35 94.8698 34.84 94.5498 34.52L88.5018 27.864C88.4591 27.8 88.3951 27.7893 88.3098 27.832C88.2458 27.8533 88.2138 27.896 88.2138 27.96V33.528C88.2138 33.9333 88.0644 34.2853 87.7658 34.584C87.4884 34.8613 87.1471 35 86.7418 35H85.8458C85.4404 35 85.0991 34.8613 84.8218 34.584C84.5444 34.2853 84.4058 33.9333 84.4058 33.528V14.84C84.4058 14.4133 84.5444 14.0613 84.8218 13.784C85.0991 13.5067 85.4404 13.368 85.8458 13.368H86.7418C87.1471 13.368 87.4884 13.5067 87.7658 13.784C88.0644 14.0613 88.2138 14.4133 88.2138 14.84V20.376C88.2138 20.4613 88.2458 20.5147 88.3098 20.536C88.3951 20.5573 88.4591 20.5467 88.5018 20.504L94.5498 13.848C94.8698 13.528 95.2324 13.368 95.6378 13.368H96.8218C97.4404 13.368 97.8778 13.656 98.1338 14.232ZM110.027 8.888L109.291 11.128C109.184 11.4267 108.992 11.672 108.715 11.864C108.459 12.056 108.181 12.152 107.883 12.152H106.955C106.421 12.152 106.027 11.9387 105.771 11.512C105.472 11.1493 105.397 10.7227 105.547 10.232L106.283 7.96C106.389 7.66133 106.571 7.42667 106.827 7.256C107.104 7.064 107.392 6.968 107.691 6.968H108.619C109.131 6.968 109.525 7.17067 109.803 7.576C110.101 7.96 110.176 8.39733 110.027 8.888ZM114.731 33.528C114.731 33.9333 114.581 34.2853 114.283 34.584C114.005 34.8613 113.675 35 113.291 35H102.315C101.909 35 101.557 34.8613 101.259 34.584C100.981 34.2853 100.843 33.9333 100.843 33.528V14.84C100.843 14.4133 100.981 14.072 101.259 13.816C101.557 13.5387 101.909 13.4 102.315 13.4H113.291C113.675 13.4 114.005 13.5387 114.283 13.816C114.581 14.072 114.731 14.4133 114.731 14.84V15.704C114.731 16.1093 114.581 16.4613 114.283 16.76C114.005 17.0373 113.675 17.176 113.291 17.176H105.035C104.779 17.176 104.651 17.3147 104.651 17.592V21.848C104.651 22.1467 104.779 22.296 105.035 22.296H112.139C112.565 22.296 112.917 22.4347 113.195 22.712C113.472 22.9893 113.611 23.3307 113.611 23.736V24.632C113.611 25.0373 113.472 25.3893 113.195 25.688C112.917 25.9653 112.565 26.104 112.139 26.104H105.035C104.779 26.104 104.651 26.232 104.651 26.488V30.808C104.651 31.0853 104.779 31.224 105.035 31.224H113.291C113.675 31.224 114.005 31.3627 114.283 31.64C114.581 31.9173 114.731 32.2693 114.731 32.696V33.528ZM131.52 30.776C131.52 31.544 131.328 32.248 130.944 32.888C130.56 33.528 130.048 34.04 129.408 34.424C128.768 34.808 128.064 35 127.296 35H118.752C118.347 35 117.995 34.8613 117.696 34.584C117.419 34.2853 117.28 33.9333 117.28 33.528V14.84C117.28 14.4133 117.419 14.0613 117.696 13.784C117.995 13.5067 118.347 13.368 118.752 13.368H127.296C128.064 13.368 128.768 13.56 129.408 13.944C130.048 14.328 130.56 14.84 130.944 15.48C131.328 16.12 131.52 16.8347 131.52 17.624V30.776ZM127.712 30.776V17.624C127.712 17.3253 127.573 17.176 127.296 17.176H121.536C121.259 17.176 121.12 17.3147 121.12 17.592V30.808C121.12 31.0853 121.259 31.224 121.536 31.224H127.296C127.403 31.224 127.499 31.1813 127.584 31.096C127.669 30.9893 127.712 30.8827 127.712 30.776ZM150.668 33.08C150.796 33.5707 150.721 34.0187 150.444 34.424C150.166 34.808 149.772 35 149.26 35H148.332C148.033 35 147.745 34.904 147.468 34.712C147.212 34.52 147.03 34.2853 146.924 34.008L145.708 30.328C145.622 30.0507 145.441 29.912 145.164 29.912H139.692C139.414 29.912 139.233 30.0507 139.148 30.328L137.932 34.008C137.825 34.2853 137.644 34.52 137.388 34.712C137.132 34.904 136.844 35 136.524 35H135.596C135.084 35 134.689 34.808 134.412 34.424C134.113 33.9973 134.049 33.5493 134.22 33.08L140.428 14.36C140.534 14.0613 140.705 13.8267 140.94 13.656C141.196 13.464 141.473 13.368 141.772 13.368H143.084C143.382 13.368 143.66 13.464 143.916 13.656C144.172 13.8267 144.342 14.0613 144.428 14.36L150.668 33.08ZM144.204 25.72L142.604 20.824C142.497 20.6747 142.38 20.6747 142.252 20.824L140.652 25.72C140.609 25.8267 140.62 25.9227 140.684 26.008C140.748 26.0933 140.833 26.136 140.94 26.136H143.916C144.022 26.136 144.108 26.0933 144.172 26.008C144.236 25.9227 144.246 25.8267 144.204 25.72ZM167.936 30.776C167.936 31.544 167.744 32.248 167.36 32.888C166.976 33.528 166.464 34.04 165.824 34.424C165.184 34.808 164.48 35 163.712 35H157.568C156.8 35 156.085 34.808 155.424 34.424C154.784 34.04 154.272 33.528 153.888 32.888C153.504 32.248 153.312 31.544 153.312 30.776V29.816C153.312 29.4107 153.451 29.0693 153.728 28.792C154.027 28.4933 154.379 28.344 154.784 28.344H155.68C156.064 28.344 156.395 28.4933 156.672 28.792C156.971 29.0693 157.12 29.4107 157.12 29.816V30.776C157.12 30.8827 157.163 30.9893 157.248 31.096C157.355 31.1813 157.461 31.224 157.568 31.224H163.712C163.819 31.224 163.915 31.1813 164 31.096C164.085 30.9893 164.128 30.8827 164.128 30.776V27.864C164.128 27.6293 164.021 27.48 163.808 27.416L156.128 24.536C155.275 24.2373 154.592 23.7147 154.08 22.968C153.568 22.2213 153.312 21.4 153.312 20.504V17.624C153.312 16.8347 153.504 16.12 153.888 15.48C154.272 14.84 154.784 14.328 155.424 13.944C156.085 13.56 156.8 13.368 157.568 13.368H163.712C164.48 13.368 165.184 13.56 165.824 13.944C166.464 14.328 166.976 14.84 167.36 15.48C167.744 16.12 167.936 16.8347 167.936 17.624V18.488C167.936 18.8933 167.787 19.2347 167.488 19.512C167.211 19.7893 166.869 19.928 166.464 19.928H165.6C165.195 19.928 164.843 19.7893 164.544 19.512C164.267 19.2347 164.128 18.8933 164.128 18.488V17.624C164.128 17.3253 163.989 17.176 163.712 17.176H157.568C157.461 17.176 157.355 17.2187 157.248 17.304C157.163 17.3893 157.12 17.496 157.12 17.624V20.504C157.12 20.76 157.227 20.92 157.44 20.984L165.152 23.864C165.984 24.1627 166.656 24.6853 167.168 25.432C167.68 26.1787 167.936 26.9893 167.936 27.864V30.776ZM184.77 33.528C184.77 33.9333 184.631 34.2853 184.354 34.584C184.077 34.8613 183.725 35 183.298 35H182.434C182.029 35 181.677 34.8613 181.378 34.584C181.101 34.2853 180.962 33.9333 180.962 33.528V26.488C180.962 26.232 180.823 26.104 180.546 26.104H174.786C174.509 26.104 174.37 26.232 174.37 26.488V33.528C174.37 33.9333 174.221 34.2853 173.922 34.584C173.645 34.8613 173.303 35 172.898 35H172.002C171.597 35 171.245 34.8613 170.946 34.584C170.669 34.2853 170.53 33.9333 170.53 33.528V14.84C170.53 14.4133 170.669 14.0613 170.946 13.784C171.245 13.5067 171.597 13.368 172.002 13.368H172.898C173.303 13.368 173.645 13.5067 173.922 13.784C174.221 14.0613 174.37 14.4133 174.37 14.84V21.848C174.37 22.1467 174.509 22.296 174.786 22.296H180.546C180.823 22.296 180.962 22.1467 180.962 21.848V14.84C180.962 14.4133 181.101 14.0613 181.378 13.784C181.677 13.5067 182.029 13.368 182.434 13.368H183.298C183.725 13.368 184.077 13.5067 184.354 13.784C184.631 14.0613 184.77 14.4133 184.77 14.84V33.528Z" fill="#4A3755"/>
</svg>
