<svg width="44" height="44" viewBox="0 0 44 44" fill="none" xmlns="http://www.w3.org/2000/svg">
  <circle cx="22" cy="22" r="19" fill="white" stroke="#4A3755" stroke-width="5"/>
  <path d="M3.00001 22C3.00001 19.5049 3.49146 17.0342 4.4463 14.729C5.40113 12.4238 6.80067 10.3293 8.56498 8.56497C10.3293 6.80066 12.4238 5.40113 14.729 4.44629C17.0342 3.49145 19.5049 3 22 3C24.4951 3 26.9658 3.49145 29.271 4.44629C31.5762 5.40113 33.6707 6.80066 35.435 8.56498C37.1993 10.3293 38.5989 12.4238 39.5537 14.729C40.5086 17.0342 41 19.5049 41 22L22 22L3.00001 22Z" fill="#E5578A" stroke="#4A3755" stroke-width="5"/>
  <circle cx="21.9999" cy="22" r="4.4604" fill="white" stroke="#4A3755" stroke-width="5"/>
</svg>
