<svg width="223" height="181" viewBox="0 0 223 181" fill="none" xmlns="http://www.w3.org/2000/svg">
  <g clip-path="url(#clip0_25_2735)">
  <path d="M87.8472 8.78974C90.2295 9.94179 90.4847 12.3739 88.5704 16.1287C86.8262 19.6275 84.2312 22.529 80.8705 24.8758L76.0633 28.4173C74.1064 29.868 72.575 30.8494 71.3838 31.4467C68.0231 33.1108 65.9811 32.2574 65.3005 28.9293C64.3645 24.4064 63.8115 19.0729 63.6839 12.8859C63.5137 6.05895 64.0668 2.43212 65.3005 2.00544C66.4065 1.62142 69.8523 2.34679 75.5528 4.13886C80.7854 5.84561 84.9119 7.38167 87.8472 8.78974Z" fill="#C2C5D2"/>
  <path d="M160.805 1.792C161.826 2.68804 162.166 6.82689 161.911 14.2512C161.698 21.2489 161.145 26.7104 160.252 30.5506C159.869 32.172 158.125 32.1293 154.934 30.3799C152.169 28.8865 148.851 26.4118 145.022 23.0409C141.364 19.7981 138.428 16.7687 136.174 13.9952C133.749 10.9657 133.026 9.259 134.004 8.83231C136.386 7.68026 141.194 6.14419 148.383 4.13877C155.955 1.96267 160.124 1.19464 160.805 1.792Z" fill="#C2C5D2"/>
  <path d="M64.1519 4.4801C64.4922 6.40019 64.9601 8.53362 65.5982 10.8804C66.917 15.6166 68.3634 19.1154 69.98 21.3342L65.3005 28.9292C64.8325 25.9851 64.4496 22.7422 64.1093 19.2434C63.4287 12.2458 63.4287 7.3389 64.1519 4.4801Z" fill="#9D82B1"/>
  <path d="M161.698 4.22412C162.294 8.49098 162.251 14.1659 161.528 21.2489C161.145 24.7904 160.72 27.8625 160.252 30.5506C160.082 29.9106 159.274 28.3319 157.912 25.8571L155.87 22.3156C156.891 21.4195 158.167 18.1341 159.699 12.4592C160.465 9.60036 161.103 6.86957 161.698 4.22412Z" fill="#9D82B1"/>
  <path d="M90.6124 9.42966C91.4632 10.027 91.8035 10.411 91.5908 10.6244C91.4206 10.8377 90.8676 10.7097 89.9317 10.2404C86.656 8.61896 82.1467 6.95488 76.4037 5.29081C70.2352 3.49873 66.6618 2.94404 65.7684 3.66941C64.8751 4.3521 64.6198 8.61896 65.0027 16.4273C65.343 23.8516 65.896 28.9719 66.6192 31.7453C66.917 32.8547 66.917 33.4521 66.5767 33.5374C66.2364 33.6227 65.8535 33.1107 65.4706 32.0013C65.0878 30.9346 64.6623 28.8865 64.1944 25.9424C63.6839 22.7422 63.301 19.5848 63.0458 16.3846C62.4077 7.80826 62.9607 3.02938 64.6623 2.00533C66.3214 1.02396 70.533 1.62131 77.297 3.75474C83.5506 5.7175 87.9748 7.63758 90.6124 9.42966Z" fill="#87729C" stroke="#87729C" stroke-width="3" stroke-miterlimit="10"/>
  <path d="M161.145 0.853329C162.592 1.7067 163.23 6.27224 163.017 14.5926C162.847 22.785 162.039 28.5026 160.677 31.7454C159.954 33.4948 159.444 34.2628 159.146 34.0921C158.891 33.9215 159.018 32.9827 159.571 31.3187C160.295 29.0999 160.72 23.8943 160.848 15.6166C160.975 7.38162 160.762 3.07209 160.124 2.64541C159.444 2.17605 155.19 3.02943 147.362 5.20552C139.832 7.29628 134.727 8.96035 132.09 10.1551C131.069 10.6244 130.473 10.7098 130.303 10.4111C130.133 10.1124 130.516 9.68572 131.452 9.13103C133.791 7.72297 138.981 5.84555 146.979 3.49878C155.275 1.06667 159.997 0.213301 161.145 0.853329Z" fill="#87729C" stroke="#87729C" stroke-width="3" stroke-miterlimit="10"/>
  <path d="M146.554 70.6591C137.152 76.3767 125.368 79.2355 111.16 79.2355C96.1001 79.2355 84.1461 75.8647 75.255 69.0804C71.1286 65.9656 68.0231 62.2534 65.8535 58.0292C63.7264 53.8477 62.6629 49.3675 62.6629 44.546C62.6629 31.02 67.8529 20.7369 78.1904 13.6966C86.9538 7.723 98.057 4.73621 111.5 4.73621C118.009 4.73621 124.177 5.46157 130.048 6.95497C136.216 8.53371 141.662 10.8378 146.341 13.9099C157.061 20.9503 162.379 30.892 162.379 43.7353C162.379 55.2558 157.104 64.2162 146.554 70.6591Z" fill="#C2C5D2" stroke="#87729C" stroke-width="3" stroke-miterlimit="10"/>
  <path d="M155.615 44.6312C155.615 48.258 154.424 51.9702 152.042 55.7677C149.702 59.5225 146.469 62.936 142.342 66.0081C138.088 69.2083 133.324 71.6831 128.048 73.4751C122.39 75.3952 116.605 76.3766 110.734 76.3766C98.6951 76.3766 88.6129 73.0485 80.5301 66.3495C76.9567 63.4054 74.149 60.0772 72.1921 56.3224C70.2352 52.6102 69.2568 48.8981 69.2568 45.1859C69.2568 35.4575 72.7877 27.4784 79.892 21.2488C82.6147 18.8594 85.6351 16.8966 88.9958 15.4459C91.8886 14.1659 94.5687 13.4405 96.951 13.2698C97.2488 13.2272 99.7587 14.3792 104.523 16.726L111.585 20.2248L119.157 17.11C124.39 15.0192 127.368 13.9952 128.176 13.9952C130.601 13.9952 133.324 14.7205 136.386 16.1286C139.62 17.622 142.597 19.6274 145.363 22.1875C152.212 28.5025 155.615 36.0122 155.615 44.6312Z" fill="#FFFBF0" stroke="#87729C" stroke-width="3" stroke-miterlimit="10"/>
  <path d="M95.8875 39.4256C96.0576 38.6149 96.2703 37.8042 96.5256 36.9935C97.0786 35.3295 97.5891 34.4761 98.1421 34.3481C98.7377 34.2201 99.4184 34.7748 100.184 36.0122C100.865 37.0789 101.248 37.8896 101.333 38.4869C101.375 38.8283 100.482 39.0843 98.6526 39.255L95.8875 39.4256Z" fill="white"/>
  <path d="M122.05 38.6576L122.986 36.6949C123.752 35.3722 124.475 34.7748 125.113 34.9028C125.794 35.0308 126.304 35.8415 126.645 37.4202L126.942 39.7244L122.05 38.6576Z" fill="white"/>
  <path d="M158.338 57.2184C160.337 53.4209 161.316 49.4528 161.316 45.3566C161.316 32.94 156.891 23.2543 148.085 16.2566C139.279 9.25898 127.027 5.71749 111.457 5.71749C96.5256 5.71749 84.8268 9.25898 76.3611 16.2993C67.938 23.3823 63.7264 33.196 63.7264 45.6979C63.7264 49.8794 64.6623 53.8903 66.5341 57.6878C68.491 61.6986 71.3838 65.1548 75.2125 68.1416C83.8909 74.9686 95.9725 78.382 111.457 78.382C127.453 78.382 140.045 74.8832 149.234 67.8429C153.19 64.8134 156.253 61.2719 158.338 57.2184ZM163.315 45.3566C163.315 49.7088 162.294 53.8903 160.209 57.9011C157.997 62.168 154.849 65.8801 150.68 69.123C141.109 76.5473 128.048 80.2595 111.415 80.2595C95.3344 80.2595 82.8274 76.6753 73.7661 69.4643C69.8098 66.3068 66.7894 62.6373 64.7474 58.4131C62.7905 54.4023 61.8121 50.1781 61.8121 45.7833C61.8121 32.94 66.2364 22.8276 75.1274 15.4886C84.0185 8.10693 96.1002 4.4801 111.457 4.4801C127.708 4.4801 140.385 8.06426 149.532 15.1899C158.721 22.3582 163.315 32.428 163.315 45.3566Z" fill="#87729C" stroke="#87729C" stroke-width="3" stroke-miterlimit="10"/>
  <path d="M156.338 44.6312C156.338 48.4714 155.232 52.3116 153.063 56.1517C150.85 59.9919 147.787 63.4907 143.831 66.5629C139.705 69.8057 134.94 72.3231 129.622 74.1152C123.879 76.0353 117.839 77.0166 111.457 77.0166C97.3764 77.0166 86.4008 73.1765 78.4031 65.5388C75.17 62.424 72.7451 58.9252 71.0435 54.9997C69.512 51.4582 68.7463 48.0447 68.7463 44.6739C68.7463 35.6708 72.1496 27.9051 78.9136 21.3769C81.7213 18.6887 84.7842 16.5553 88.145 14.9766C91.3356 13.4832 94.3134 12.7578 97.0361 12.7578L97.4189 12.8005C100.312 14.4219 103.29 15.958 106.395 17.4087C109.16 18.6887 110.819 19.4141 111.415 19.4994C111.968 19.4568 113.882 18.8167 117.073 17.5367C120.391 16.214 123.922 14.7206 127.581 13.0565L127.921 13.0138C130.346 13.0138 133.153 13.7392 136.301 15.2326C139.662 16.8113 142.768 18.9021 145.618 21.5475C152.807 28.1185 156.338 35.7988 156.338 44.6312ZM151.233 55.5117C153.403 51.8422 154.466 48.2154 154.466 44.6312C154.466 36.1828 151.063 28.8012 144.214 22.4862C141.534 20.0115 138.599 18.0487 135.493 16.5553C132.643 15.1899 130.176 14.5072 128.134 14.4646L119.03 18.2194C114.648 19.9688 112.138 20.8222 111.457 20.8222C110.99 20.8222 109.203 20.0968 106.055 18.6461C104.183 17.75 101.12 16.2993 96.9084 14.2085C93.9306 14.2512 90.8676 15.0619 87.7196 16.6833C84.6141 18.2621 81.8064 20.4382 79.2539 23.2116C76.5738 26.1131 74.5319 29.3132 73.0429 32.8547C71.4264 36.6949 70.6181 40.6204 70.6181 44.6312C70.6181 47.7887 71.3413 51.0742 72.7877 54.4023C74.4468 58.1145 76.7865 61.4426 79.8495 64.3441C87.5069 71.5977 98.057 75.1819 111.5 75.1819C117.456 75.1819 123.156 74.2859 128.601 72.4511C133.706 70.7444 138.258 68.3976 142.257 65.3255C146.043 62.3813 149.064 59.1385 151.233 55.5117Z" fill="#87729C" stroke="#87729C" stroke-width="3" stroke-miterlimit="10"/>
  <path d="M82.0616 29.4839C81.1257 29.6972 80.6578 29.6546 80.5727 29.3559C80.4876 29.0572 80.8705 28.7585 81.7213 28.4172C84.4014 27.3931 87.7196 26.7531 91.6759 26.5398C95.6747 26.3264 98.8228 26.5824 101.12 27.3505C101.971 27.6491 102.354 27.9478 102.311 28.2465C102.269 28.5452 101.801 28.6305 100.95 28.4172C98.4399 27.8625 95.5046 27.6918 92.1438 27.9052C88.9958 28.0758 85.6351 28.6305 82.0616 29.4839Z" fill="#87729C" stroke="#87729C" stroke-width="3" stroke-miterlimit="10"/>
  <path d="M141.194 28.1612C141.874 28.6306 142.087 29.0146 141.874 29.3133C141.662 29.6546 141.236 29.5693 140.555 29.1426C138.981 28.0759 136.004 27.4359 131.622 27.1798C127.198 26.8812 123.582 27.1372 120.731 27.9052C120.136 28.0759 119.838 27.9479 119.753 27.6492C119.668 27.3079 119.881 27.0518 120.476 26.8812C123.624 25.8571 127.368 25.5158 131.75 25.8145C136.089 26.0278 139.237 26.8385 141.194 28.1612Z" fill="#87729C" stroke="#87729C" stroke-width="3" stroke-miterlimit="10"/>
  <path d="M126.517 39.127C127.283 39.383 127.623 39.639 127.58 39.9804C127.538 40.279 127.155 40.3644 126.389 40.151C123.199 39.383 118.519 38.999 112.436 38.999C106.353 38.9563 100.992 39.2977 96.4405 39.9804C95.7598 40.1084 95.3344 39.9804 95.2493 39.7243C95.1642 39.4257 95.4195 39.2123 96.1001 39.0843C100.312 38.0176 105.544 37.5056 111.883 37.5056C118.307 37.4629 123.156 38.0176 126.517 39.127Z" fill="#87729C" stroke="#87729C" stroke-width="3" stroke-miterlimit="10"/>
  <path d="M98.3974 35.2015C98.057 35.2868 97.6742 35.7988 97.2913 36.7375C96.8659 37.7189 96.6957 38.5296 96.7808 39.255C96.0151 39.639 95.5897 39.6817 95.5897 39.3403C95.5471 38.4869 95.6748 37.4202 96.0576 36.2255C96.5256 34.7321 97.1211 33.8787 97.8443 33.6227C98.525 33.3667 99.3758 33.9214 100.397 35.3295C101.29 36.5669 101.801 37.5909 101.971 38.4016C102.013 38.6576 101.843 38.8283 101.418 38.9136C100.992 38.999 100.78 38.9563 100.737 38.7003C100.61 37.8896 100.269 37.1215 99.7587 36.3108C99.1631 35.5001 98.7377 35.1161 98.3974 35.2015Z" fill="#87729C" stroke="#87729C" stroke-width="3" stroke-miterlimit="10"/>
  <path d="M125.496 33.8787C126.219 34.0494 126.73 34.8175 127.07 36.1828C127.325 37.2069 127.41 38.3589 127.41 39.7243H126.857C126.474 39.511 126.304 39.2976 126.304 39.127C126.389 38.5296 126.262 37.8469 126.006 37.0362C125.709 36.1828 125.411 35.7562 125.028 35.7135C124.688 35.6282 124.22 35.9268 123.667 36.5669C123.114 37.2069 122.731 37.9323 122.476 38.743C122.39 38.999 122.22 39.0843 121.88 39.0843C121.582 39.0843 121.455 38.9563 121.497 38.7003C121.71 37.2496 122.305 36.0548 123.284 35.0308C124.135 34.0921 124.9 33.7081 125.496 33.8787Z" fill="#87729C" stroke="#87729C" stroke-width="3" stroke-miterlimit="10"/>
  <path d="M50.4962 66.7335L58.5364 115.504C56.6221 117.168 52.8785 119.643 47.3907 122.928C41.3499 126.555 36.2875 129.2 32.2036 130.907C26.5881 133.254 21.8235 134.662 17.8672 135.131C12.5496 135.771 9.10378 134.577 7.5723 131.632C4.55189 125.787 4.12648 119.557 6.38115 113.029C8.33804 107.226 12.6347 100.484 19.2711 92.7613C23.4401 87.9398 28.8003 82.9049 35.3516 77.6567C40.414 73.6032 45.4338 69.9763 50.4962 66.7335Z" fill="#C2C5D2"/>
  <path d="M186.415 76.7607C193.562 82.393 199.262 87.7265 203.474 92.7614C210.068 100.655 214.449 107.098 216.534 112.09C219.597 119.387 219.171 125.702 215.343 131.078C212.577 134.961 207.813 136.113 201.049 134.491C198.794 133.937 196.242 133.083 193.391 131.889L187.904 129.456C185.479 128.432 181.778 126.47 176.758 123.483C172.036 120.667 167.782 118.021 164.038 115.461L171.015 65.8802C175.694 68.6964 180.842 72.3232 186.415 76.7607Z" fill="#C2C5D2"/>
  <path d="M58.4088 102.191C59.132 103.215 59.6425 104.709 59.9403 106.671C60.2806 108.762 60.2806 110.682 59.9403 112.432C59.5574 114.48 58.7917 115.888 57.6005 116.698C39.9885 128.432 27.4815 134.491 20.1644 134.918C15.5275 135.174 12.3369 134.705 10.5927 133.51C10.0397 133.126 9.65681 132.699 9.44411 132.23L9.31648 131.632C15.2297 128.731 21.6108 125.275 28.4599 121.349C42.1581 113.456 51.3895 106.927 56.1541 101.807C56.8773 100.996 57.6431 101.124 58.4088 102.191Z" fill="#9D82B1"/>
  <path d="M161.996 103.685C162.719 103.13 163.911 103.685 165.612 105.306C169.271 108.89 178.247 114.608 192.541 122.459C199.688 126.384 206.452 129.968 212.875 133.168C211.386 134.107 209.472 134.662 207.09 134.747C203.771 134.875 199.815 134.193 195.178 132.699C190.711 131.206 184.756 128.304 177.311 123.995C171.866 120.837 167.867 118.277 165.272 116.4C164.421 115.802 163.613 114.522 162.847 112.602C162.081 110.767 161.613 108.975 161.443 107.269C161.188 105.349 161.358 104.154 161.996 103.685Z" fill="#9D82B1"/>
  <path d="M170.802 66.6056C168.59 65.3682 167.569 64.6002 167.782 64.3442C167.994 64.0882 169.271 64.4722 171.61 65.5389C180.629 69.6777 190.031 76.7607 199.815 86.8305C204.324 91.4814 208.196 96.0469 211.344 100.612C214.662 105.434 216.917 109.701 218.108 113.456C219.129 116.698 219.044 120.667 217.895 125.318C216.704 130.054 214.96 133.126 212.62 134.577C209.472 136.497 205.005 136.795 199.177 135.473C189.733 133.297 178.034 126.982 164.038 116.442C162.379 115.205 161.698 114.352 161.996 113.968C162.294 113.541 163.272 113.925 164.974 115.077C179.31 124.976 190.924 131.035 199.943 133.339C205.388 134.705 209.344 134.662 211.769 133.169C213.641 132.016 215.045 129.67 215.981 126.086C217.002 122.16 217.044 118.149 216.023 114.01C214.364 107.098 208.323 98.4363 197.986 88.0679C193.562 83.6303 188.882 79.4915 183.99 75.6513C179.14 71.8112 174.758 68.8244 170.802 66.6056Z" fill="#87729C" stroke="#87729C" stroke-width="3" stroke-miterlimit="10"/>
  <path d="M53.7293 65.2828C53.9846 65.4108 53.4315 65.8375 52.1553 66.5629C48.199 68.7816 43.7747 71.8111 38.9676 75.6086C34.0754 79.4488 29.3958 83.5876 25.0141 88.0252C14.6766 98.3936 8.63582 107.013 6.97673 113.968C5.9132 118.49 5.74304 122.416 6.50877 125.787C7.27451 129.158 8.84853 131.59 11.2308 133.083C13.6982 134.577 17.6545 134.662 23.0998 133.254C32.0759 130.95 43.7322 124.891 58.0685 114.992C59.685 113.882 60.6209 113.541 60.8762 113.968C61.174 114.394 60.5359 115.205 59.0044 116.357C47.3056 125.232 36.8405 131.12 27.6517 134.107C19.8241 136.625 14.0811 136.753 10.4225 134.491C7.5723 132.742 5.74304 129.542 4.84967 124.848C4.04139 120.624 4.2541 116.698 5.36017 113.072C7.91263 105.007 13.8684 96.2602 23.2274 86.7878C32.3737 77.5714 41.7327 70.6164 51.3895 66.0082C52.6658 65.4108 53.4741 65.1548 53.7293 65.2828Z" fill="#87729C" stroke="#87729C" stroke-width="3" stroke-miterlimit="10"/>
  <path d="M193.136 121.605C193.136 139.825 184.543 153.095 167.314 161.415C153.445 168.114 134.43 171.485 110.266 171.485C85.6351 171.485 66.1513 167.261 51.8575 158.77C37.1383 150.065 29.7787 137.947 29.7787 122.331C29.7787 111.023 31.4803 100.698 34.9262 91.3959C38.4145 81.9662 43.5195 73.9018 50.2409 67.2029C57.1326 60.2906 65.5557 55.0423 75.4678 51.4582C85.8052 47.7033 97.4615 45.8259 110.479 45.8259C137.365 45.8259 157.997 52.6529 172.334 66.2642C186.202 79.4487 193.136 97.8816 193.136 121.605Z" fill="#C2C5D2"/>
  <path d="M153.233 54.317C160.507 57.5598 166.165 61.4853 170.207 66.0082C174.801 71.2137 177.098 77.102 177.098 83.673C177.098 91.3106 174.588 97.1989 169.526 101.38C165.442 104.751 160.72 106.415 155.36 106.415C152.892 106.415 146.299 105.519 135.536 103.727C124.773 101.935 116.733 101.039 111.5 101.039C108.309 101.039 104.608 101.466 100.354 102.276C98.0145 102.746 94.0582 103.684 88.5704 105.05C83.3378 106.373 79.2964 107.269 76.3611 107.823C71.8092 108.677 67.6827 109.061 63.9817 109.061C56.6646 109.061 51.0917 106.586 47.3056 101.679C44.4554 98.0096 43.0515 93.9561 43.0515 89.5185C43.0515 82.7342 44.9233 76.5473 48.6244 70.915C52.1553 65.6241 57.1326 61.0159 63.6414 57.1758C69.8949 53.4636 77.1694 50.6048 85.5074 48.6421C93.7178 46.6793 102.396 45.7406 111.543 45.7406C118.051 45.7406 124.815 46.4233 131.877 47.746C139.79 49.3248 146.937 51.5009 153.233 54.317Z" fill="#FFFBF0"/>
  <path d="M185.436 149.468C181.055 154.545 174.971 158.898 167.229 162.482C152.339 169.351 133.749 172.808 111.457 172.808C100.78 172.808 90.6124 171.869 80.9555 170.034C71.086 168.157 62.4077 165.469 54.9204 161.927C47.0929 158.215 41.0521 153.777 36.8405 148.657C32.2886 143.153 30.034 137.094 30.034 130.48L31.0975 131.547C32.0759 132.443 33.182 133.382 34.4582 134.363C38.4996 137.521 43.2642 140.379 48.6669 142.982C66.0237 151.345 86.9113 155.527 111.457 155.527C132.6 155.527 152.595 151.473 171.44 143.324C177.353 140.763 182.756 137.947 187.691 134.918C190.158 133.382 192.073 132.144 193.349 131.12C192.796 137.862 190.158 144.006 185.436 149.468Z" fill="#9D82B1"/>
  <path d="M171.398 158.514C185.521 150.407 192.541 139.014 192.541 124.293C192.541 99.247 185.564 80.0462 171.653 66.6909C157.742 53.293 137.748 46.6367 111.67 46.6367C85.5925 46.6367 65.5982 53.3357 51.7299 66.6909C37.819 80.0462 30.8422 99.247 30.8422 124.293C30.8422 139.014 37.904 150.449 51.9851 158.514C66.1087 166.621 85.9754 170.632 111.67 170.632C137.407 170.674 157.317 166.621 171.398 158.514ZM194.795 124.293C194.795 139.526 187.521 151.388 172.929 159.836C158.338 168.285 137.961 172.466 111.713 172.466C85.4649 172.466 65.0877 168.242 50.5387 159.836C35.9897 151.388 28.7152 139.569 28.7152 124.293C28.7152 98.9484 35.9472 79.4488 50.4536 65.7949C64.8325 52.269 85.2522 45.5273 111.713 45.5273C137.025 45.5273 156.891 51.757 171.228 64.1735C186.925 77.7421 194.795 97.7963 194.795 124.293Z" fill="#87729C" stroke="#87729C" stroke-width="3" stroke-miterlimit="10"/>
  <path d="M171.525 69.1657C168.335 64.6855 163.825 60.7173 157.912 57.3465C152.042 53.933 145.192 51.3302 137.407 49.4955C129.367 47.6181 120.774 46.6794 111.713 46.6794C103.375 46.6794 95.2919 47.5754 87.4218 49.3248C79.1688 51.2022 71.8943 53.8904 65.5982 57.3892C58.7917 61.1867 53.5591 65.7095 49.8581 70.9578C45.8167 76.6754 43.8172 83.0756 43.8172 90.1159C43.8172 94.9375 45.4763 98.991 48.7945 102.362C52.5807 106.202 57.8132 108.122 64.4071 108.122C67.3424 108.122 75.17 106.842 87.8046 104.239C100.439 101.636 108.224 100.314 111.202 100.314C114.988 100.314 122.561 101.21 133.962 103.002C145.363 104.794 152.084 105.69 154.126 105.69C160.975 105.69 166.506 103.386 170.717 98.8203C174.546 94.6815 176.418 89.7319 176.418 84.057C176.46 78.7234 174.801 73.7739 171.525 69.1657ZM138.046 48.5568C146.086 50.3915 153.105 53.037 159.146 56.4931C165.229 59.9493 169.866 63.9601 173.142 68.5683C176.545 73.3899 178.247 78.5101 178.247 83.9717C178.247 90.116 176.162 95.4922 172.036 100.1C167.441 105.178 161.486 107.738 154.169 107.738C151.063 107.738 144.171 106.757 133.494 104.751C122.816 102.746 115.414 101.764 111.245 101.764C108.012 101.764 100.227 103.13 87.9323 105.903C75.6379 108.677 67.8104 110.042 64.4496 110.042C57.3027 110.042 51.6448 107.909 47.4758 103.642C43.8172 99.887 41.988 95.3642 41.988 90.1159C41.988 83.5877 43.6896 77.5287 47.1354 71.9818C50.4536 66.6056 55.2608 61.912 61.5143 57.9865C67.7253 54.061 75.0849 51.0742 83.5505 48.9835C92.2289 46.85 101.63 45.7833 111.755 45.7833C121.029 45.698 129.835 46.6794 138.046 48.5568Z" fill="#87729C" stroke="#87729C" stroke-width="3" stroke-miterlimit="10"/>
  <path d="M18.633 162.311C17.2717 159.239 16.591 156.167 16.591 153.18C16.591 143.494 19.8667 135.857 26.418 130.224C32.714 124.805 40.967 122.117 51.2194 122.117C59.1746 122.117 65.7259 125.104 70.9159 131.035C73.1705 133.638 74.9573 136.539 76.191 139.825C77.4247 143.025 78.0202 146.225 78.0202 149.468C78.0202 152.796 77.3821 156.167 76.1059 159.538C74.7446 163.164 72.7877 166.407 70.2778 169.266C64.2369 176.136 56.1541 179.549 46.0719 179.549C37.4361 179.549 30.2041 176.648 24.4185 170.802C21.9512 168.285 20.0368 165.469 18.633 162.311Z" fill="#FFFBF0"/>
  <path d="M176.077 120.155C185.053 120.155 192.285 122.459 197.773 127.067C203.644 131.974 206.537 138.801 206.537 147.548C206.537 151.26 205.771 155.015 204.239 158.812C202.665 162.653 200.496 166.151 197.688 169.223C191.264 176.264 183.394 179.805 174.12 179.805C165.953 179.805 159.274 176.861 154.041 170.93C151.786 168.37 150.085 165.469 148.851 162.269C147.66 159.154 147.064 156.039 147.064 152.967C147.064 142.556 150.042 134.321 155.955 128.347C161.316 122.843 168.037 120.155 176.077 120.155Z" fill="#FFFBF0"/>
  <path d="M18.633 156.636C20.5898 157.66 22.6744 158.556 24.929 159.41C32.1185 162.098 39.4355 163.421 46.8377 163.421C54.2398 163.421 61.6845 161.543 69.1717 157.788C72.9153 155.911 75.8932 154.033 78.1478 152.156C78.1478 154.417 77.5097 157.02 76.276 159.922C74.8722 163.207 72.9153 166.237 70.4479 168.967C64.0668 176.008 55.984 179.549 46.1145 179.549C36.5853 179.549 28.8428 176.05 22.9296 169.01C20.8451 166.535 19.1435 163.847 17.9098 160.903C16.8888 158.514 16.3783 156.679 16.3783 155.399L18.633 156.636Z" fill="#DDD2EA"/>
  <path d="M146.979 148.785L148.085 150.663C149.149 152.156 150.425 153.521 151.957 154.759C156.891 158.77 163.4 160.732 171.398 160.732C179.438 160.732 187.606 159.666 195.944 157.575C200.113 156.508 203.474 155.484 206.026 154.417C206.026 156.721 205.218 159.324 203.644 162.183C201.985 165.17 199.773 167.943 197.007 170.503C190.243 176.733 182.629 179.805 174.078 179.805C164.208 179.805 156.976 176.306 152.339 169.309C148.766 163.932 146.979 157.106 146.979 148.785Z" fill="#DDD2EA"/>
  <path d="M189.903 123.355C186.627 122.16 183.097 121.435 179.268 121.221C175.524 121.008 171.908 121.264 168.505 122.032C164.974 122.8 162.081 124.037 159.742 125.702C156.508 128.006 153.828 131.334 151.744 135.686C149.659 140.038 148.468 144.732 148.213 149.724C147.958 154.332 148.553 158.642 149.957 162.567C151.361 166.493 153.531 169.778 156.381 172.296C158.55 174.258 161.145 175.794 164.166 176.946C167.484 178.227 170.93 178.867 174.503 178.824C183.224 178.781 191.179 174.984 198.369 167.431C200.581 165.085 202.368 162.226 203.644 158.898C204.963 155.569 205.643 152.113 205.771 148.529C206.026 140.422 203.559 133.723 198.369 128.518C196.242 126.384 193.391 124.677 189.903 123.355ZM191.903 121.989C195.178 123.355 197.773 124.976 199.688 126.854C202.453 129.627 204.537 132.955 205.899 136.838C207.175 140.465 207.77 144.305 207.685 148.359C207.6 152.284 206.92 156.039 205.601 159.623C204.282 163.25 202.453 166.322 200.155 168.839C197.05 172.21 193.519 174.898 189.478 176.861C185.606 178.739 181.523 179.848 177.311 180.189C173.099 180.531 169.058 180.104 165.187 178.909C161.188 177.672 157.657 175.666 154.594 172.936C151.871 170.503 149.787 167.175 148.298 162.866C146.852 158.599 146.213 154.076 146.384 149.297C146.554 144.262 147.617 139.611 149.574 135.387C151.744 130.736 154.807 126.982 158.721 124.208C164.761 119.941 172.249 118.277 181.182 119.301C185.011 119.728 188.584 120.624 191.903 121.989Z" fill="#87729C" stroke="#87729C" stroke-width="3" stroke-miterlimit="10"/>
  <path d="M16.038 158.002C15.1446 153.991 15.1446 149.895 16.038 145.67C16.8888 141.617 18.4628 137.905 20.76 134.619C23.0998 131.248 25.9075 128.688 29.1406 126.982C37.5637 122.459 45.7741 120.581 53.7293 121.264C61.727 121.947 68.0231 125.104 72.66 130.736C75.5103 134.193 77.3821 138.161 78.318 142.598C79.1688 146.737 79.1688 150.961 78.2755 155.271C77.3821 159.452 75.7655 163.335 73.4258 166.834C71.0435 170.418 68.1507 173.277 64.7474 175.368C61.9822 177.074 58.7917 178.355 55.1331 179.208C51.347 180.061 47.5183 180.36 43.6471 180.061C34.5858 179.379 27.3113 175.922 21.8235 169.607C18.9733 166.237 17.0164 162.354 16.038 158.002ZM30.3317 128.56C27.2262 130.224 24.5887 132.657 22.4191 135.857C20.2495 139.057 18.8031 142.641 18.0799 146.652C17.3142 150.791 17.4418 154.844 18.4203 158.727C19.3987 162.61 21.1854 166.066 23.7379 169.01C28.7577 174.77 35.3941 177.971 43.7322 178.568C47.4332 178.824 51.0918 178.525 54.6652 177.629C58.2386 176.733 61.4292 175.325 64.2369 173.448C67.7253 171.101 70.5755 168.199 72.7451 164.743C74.9147 161.287 76.3186 157.532 76.9141 153.436C77.4672 149.511 77.2545 145.67 76.276 141.958C75.255 138.203 73.5959 134.918 71.2136 132.016C66.8319 126.683 60.9613 123.696 53.5166 123.099C46.1145 122.416 38.372 124.251 30.3317 128.56Z" fill="#87729C" stroke="#87729C" stroke-width="3" stroke-miterlimit="10"/>
  <path d="M37.9891 110.853C38.925 110.682 40.8394 111.664 43.7322 113.754C46.9227 116.058 48.9222 118.235 49.6879 120.283C50.1984 121.648 49.6879 123.227 48.2415 125.104C47.0504 126.64 45.9018 127.622 44.8382 128.091C43.8598 128.56 42.541 128.688 40.8819 128.475C38.8825 128.262 37.6063 127.536 37.0532 126.299C36.4577 125.019 36.33 122.117 36.7129 117.594C37.0532 113.2 37.4786 110.938 37.9891 110.853Z" fill="white"/>
  <path d="M36.6704 118.106C37.6913 120.069 39.0952 121.947 40.967 123.781C43.009 125.787 44.7957 126.854 46.2421 126.982L46.3697 127.024C45.7316 127.579 45.2211 127.963 44.7957 128.134C43.8172 128.603 42.4985 128.731 40.8394 128.518C38.8399 128.304 37.5637 127.579 37.0107 126.341C36.7129 125.701 36.5427 124.592 36.5002 123.013C36.4577 121.563 36.5002 119.941 36.6704 118.106Z" fill="#DBDCDC"/>
  <path d="M15.2297 126C16.7186 125.446 19.3987 125.83 23.355 127.024C27.1837 128.219 29.4384 129.371 30.034 130.395C30.5444 131.291 30.5444 132.785 30.034 134.875C29.566 136.71 29.0555 138.075 28.4174 139.014C27.9069 139.782 26.5031 140.38 24.2484 140.721C21.9086 141.105 20.3771 140.892 19.6965 140.166C18.9308 139.27 17.8672 136.753 16.5059 132.614C15.0595 128.432 14.6767 126.214 15.2297 126Z" fill="white"/>
  <path d="M22.249 135.089C25.1843 137.435 27.3539 138.545 28.7577 138.417L28.3749 139.057C27.8644 139.825 26.4605 140.422 24.2058 140.763C21.8661 141.147 20.3346 140.934 19.6539 140.209C19.1009 139.569 18.2926 137.777 17.2291 134.875C16.1656 131.974 15.4849 129.67 15.1871 127.878C17.2291 130.523 19.6114 132.912 22.249 135.089Z" fill="#DBDCDC"/>
  <path d="M6.93419 154.417C6.93419 154.204 7.23197 153.82 7.78501 153.18C8.42312 152.455 9.18886 151.772 10.0397 151.175C12.5071 149.383 14.8468 148.615 17.144 148.913C19.4838 149.212 21.228 150.364 22.3766 152.369C23.2274 153.905 23.5677 155.356 23.4401 156.722C23.3125 158.087 22.8871 159.282 22.2064 160.263C21.1854 161.714 19.739 162.396 17.9098 162.226C15.9529 162.055 13.5706 160.946 10.8054 158.812C8.25296 156.807 6.93419 155.313 6.93419 154.417Z" fill="white"/>
  <path d="M11.1883 158.983C8.67836 157.148 7.31705 155.697 7.01926 154.631C9.31648 155.655 11.954 156.508 14.9744 157.234C18.0374 157.959 20.76 158.386 23.1423 158.471C22.7594 159.58 22.2489 160.476 21.5258 161.116C20.5898 161.97 19.4412 162.311 18.0374 162.183C16.123 162.098 13.8258 160.988 11.1883 158.983Z" fill="#DBDCDC"/>
  <path d="M42.2432 168.071C41.4775 166.493 41.0095 164.871 40.8394 163.165C40.4565 158.94 41.9454 155.442 45.3487 152.668C48.6669 149.98 52.7509 148.657 57.6005 148.657C59.4298 148.657 61.0464 148.871 62.5353 149.255C63.8966 149.639 64.7474 150.023 65.0878 150.449C67.5551 153.735 68.406 157.191 67.5977 160.775C66.917 163.847 65.1728 166.535 62.4502 168.882C59.9828 171.016 56.9199 172.338 53.3039 172.936C49.6028 173.533 46.7951 173.064 44.8808 171.485C43.8598 170.674 43.009 169.522 42.2432 168.071Z" fill="#DAC6B1"/>
  <path d="M42.2432 168.071C41.4775 166.493 41.0095 164.871 40.8394 163.165L46.8377 163.463C53.7718 163.463 60.8336 161.799 67.9805 158.514C67.8955 160.348 67.3424 162.269 66.2789 164.274C65.2579 166.237 63.9817 167.858 62.4927 169.138C60.0254 171.229 56.9624 172.552 53.3464 173.064C49.6454 173.576 46.8377 173.064 44.9233 171.528C43.8598 170.674 43.009 169.522 42.2432 168.071Z" fill="#B4959C"/>
  <path d="M170.632 169.437C165.91 169.821 162.464 168.626 160.209 165.938C158.04 163.292 157.147 160.092 157.529 156.295C157.87 153.137 158.763 150.791 160.209 149.34C162.464 147.078 165.995 146.054 170.717 146.353C172.759 146.481 174.546 146.822 176.162 147.462C177.821 148.102 178.928 148.913 179.523 149.852C181.055 152.327 182.076 155.057 182.501 158.087C183.054 161.799 182.373 164.402 180.502 165.938C178.077 167.943 174.759 169.138 170.632 169.437Z" fill="#DAC6B1"/>
  <path d="M177.864 114.01C181.608 110.725 183.777 109.231 184.415 109.53C185.053 109.829 185.351 112.389 185.224 117.168C185.139 121.733 184.926 124.379 184.585 125.147C184.33 125.744 183.352 126.128 181.608 126.214C179.778 126.342 178.289 126.086 177.141 125.488C175.652 124.677 174.376 123.781 173.312 122.715C171.993 121.435 171.568 120.496 171.951 119.813C172.376 119.045 174.333 117.125 177.864 114.01Z" fill="white"/>
  <path d="M184.585 125.189C184.33 125.787 183.352 126.171 181.608 126.256C179.778 126.384 178.289 126.128 177.141 125.531L175.907 124.805C177.992 125.531 180.034 124.293 181.99 121.136C183.692 118.405 184.713 115.546 185.096 112.517L185.181 112.474C185.309 114.48 185.309 117.04 185.181 120.155C184.968 123.013 184.798 124.72 184.585 125.189Z" fill="#DBDCDC"/>
  <path d="M193.859 125.36C194.583 124.549 196.88 123.696 200.836 122.757C204.75 121.819 206.92 121.605 207.302 122.117C207.6 122.501 206.749 124.763 204.792 128.902C202.878 132.998 201.687 135.174 201.304 135.473C201.006 135.729 199.985 135.515 198.241 134.875C196.539 134.235 195.263 133.553 194.327 132.913C193.434 132.272 192.966 131.035 192.881 129.286C192.796 127.494 193.136 126.214 193.859 125.36Z" fill="white"/>
  <path d="M204.835 128.902C202.921 132.998 201.729 135.174 201.347 135.473C201.049 135.729 200.028 135.515 198.284 134.875C196.582 134.235 195.306 133.553 194.37 132.913C193.902 132.571 193.562 132.059 193.349 131.376L194.2 131.931C196.284 133.467 198.794 132.657 201.815 129.542C202.963 128.347 204.835 125.872 207.345 122.16C207.643 122.459 206.834 124.763 204.835 128.902Z" fill="#DBDCDC"/>
  <path d="M203.516 146.481C204.197 145.03 204.878 144.305 205.558 144.305C206.239 144.305 208.153 144.988 211.259 146.396C214.492 147.847 216.108 148.828 216.108 149.34C216.108 149.852 214.747 150.919 212.024 152.54C209.387 154.119 207.643 154.93 206.834 155.015C206.111 155.1 205.26 154.503 204.239 153.223C203.218 151.985 202.708 150.919 202.623 149.98C202.538 148.999 202.836 147.847 203.516 146.481Z" fill="white"/>
  <path d="M204.878 153.948C204.154 153.18 203.559 152.369 203.091 151.431L209.685 150.535L216.066 149.212L216.151 149.383C216.151 149.895 214.79 150.961 212.067 152.583C209.429 154.161 207.685 154.972 206.877 155.057C206.324 155.1 205.643 154.716 204.878 153.948Z" fill="#DBDCDC"/>
  <path d="M170.632 169.437C165.91 169.821 162.464 168.626 160.209 165.938C158.423 163.805 157.487 161.202 157.444 158.13C161.571 159.879 166.25 160.732 171.44 160.732L182.714 160.05C182.799 162.781 182.076 164.743 180.544 165.938C178.077 167.943 174.758 169.138 170.632 169.437Z" fill="#B4959C"/>
  <path d="M161.06 165.298C163.443 167.687 166.506 168.839 170.292 168.754C174.078 168.711 177.353 167.474 180.161 164.999C181.437 163.847 182.076 161.97 182.033 159.324C181.99 157.447 181.65 155.655 180.927 153.863C180.204 152.071 179.31 150.748 178.247 149.895C176.205 148.231 173.652 147.249 170.632 147.036C167.356 146.78 164.464 147.505 161.911 149.212C160.848 149.937 159.954 150.876 159.316 152.028C158.678 153.223 158.253 154.545 158.125 155.996C157.955 157.746 158.125 159.452 158.678 161.116C159.188 162.823 159.997 164.231 161.06 165.298ZM160.72 147.377C163.528 145.5 166.846 144.774 170.632 145.201C174.035 145.585 176.928 146.694 179.268 148.615C181.905 150.791 183.522 153.863 184.032 157.831C184.585 161.842 183.735 164.829 181.523 166.791C178.502 169.437 174.844 170.717 170.547 170.674C166.208 170.632 162.677 169.223 159.912 166.45C157.232 163.762 156.04 160.348 156.296 156.167C156.508 152.113 157.997 149.169 160.72 147.377Z" fill="#87729C" stroke="#87729C" stroke-width="3" stroke-miterlimit="10"/>
  <path d="M184.671 116.144C184.671 113.157 184.543 111.237 184.33 110.341C183.267 110.768 181.267 112.176 178.332 114.522C175.354 116.912 173.525 118.619 172.887 119.6C172.717 119.813 172.674 120.069 172.674 120.325L172.759 120.837C172.972 121.52 173.525 122.245 174.376 122.971C175.226 123.696 176.247 124.251 177.353 124.677C178.97 125.318 180.416 125.574 181.778 125.446C183.054 125.36 183.82 125.019 184.075 124.379C184.245 123.952 184.373 122.928 184.5 121.221C184.628 119.771 184.671 118.021 184.671 116.144ZM182.629 109.317C183.947 108.591 184.798 108.293 185.181 108.463C185.564 108.634 185.862 109.359 186.074 110.682C186.415 112.56 186.457 115.376 186.245 119.131C186.074 122.544 185.819 124.549 185.564 125.147C185.053 126.299 183.99 126.982 182.288 127.238C180.544 127.494 178.672 127.238 176.673 126.47C174.631 125.702 173.099 124.507 172.036 122.928C170.972 121.307 170.845 119.856 171.696 118.619C172.334 117.68 173.823 116.186 176.205 114.096C178.757 111.877 180.927 110.256 182.629 109.317Z" fill="#87729C" stroke="#87729C" stroke-width="3" stroke-miterlimit="10"/>
  <path d="M206.664 122.459C205.473 122.501 203.304 122.928 200.198 123.739C197.05 124.592 195.263 125.232 194.753 125.659C194.03 126.256 193.689 127.11 193.647 128.134V128.176C193.647 128.987 193.859 129.84 194.285 130.694C194.71 131.547 195.306 132.315 196.072 132.998C196.752 133.638 197.731 134.15 198.964 134.491C200.113 134.833 200.836 134.875 201.176 134.705C201.644 134.193 202.623 132.315 204.069 129.072C205.601 125.83 206.452 123.611 206.664 122.459ZM193.434 124.379C193.945 123.909 195.476 123.312 197.943 122.587C200.453 121.819 202.665 121.307 204.58 121.051C206.494 120.795 207.685 120.795 208.068 121.093C208.451 121.392 208.408 122.288 208.026 123.696C207.473 125.659 206.537 128.134 205.218 131.12C203.814 134.235 202.836 135.985 202.325 136.326C201.644 136.795 200.411 136.795 198.667 136.326C196.965 135.857 195.689 135.217 194.795 134.406C193.094 132.827 192.158 130.992 192.03 128.816C191.86 126.811 192.328 125.36 193.434 124.379Z" fill="#87729C" stroke="#87729C" stroke-width="3" stroke-miterlimit="10"/>
  <path d="M205.473 145.116C204.963 145.158 204.495 145.713 204.069 146.737C203.601 147.846 203.389 148.956 203.474 150.065C203.559 151.132 203.942 152.028 204.622 152.839C205.303 153.607 205.984 153.991 206.707 153.991C207.345 153.991 208.791 153.351 211.046 152.071C213.301 150.791 214.747 149.809 215.428 149.127C214.577 148.487 212.875 147.676 210.365 146.609C207.77 145.542 206.111 145.03 205.473 145.116ZM202.58 145.798C203.346 144.348 204.239 143.537 205.303 143.452C206.281 143.366 208.366 144.006 211.642 145.372C214.96 146.78 216.789 147.846 217.172 148.615C217.385 148.956 217.342 149.34 217.087 149.767C216.576 150.62 214.96 151.815 212.237 153.351C209.514 154.887 207.685 155.655 206.749 155.655C205.558 155.655 204.41 155.1 203.389 153.991C202.325 152.839 201.772 151.559 201.687 150.151C201.517 148.657 201.857 147.206 202.58 145.798Z" fill="#87729C" stroke="#87729C" stroke-width="3" stroke-miterlimit="10"/>
  <path d="M45.6465 153.564C43.0515 155.655 41.6477 158.215 41.4349 161.33C41.2222 164.146 41.9454 166.706 43.6045 169.053C44.9659 170.973 47.3907 171.954 50.8791 171.997C54.4525 172.04 57.558 171.101 60.2381 169.138C63.8541 166.45 66.1087 163.804 67.0021 161.159C67.8955 158.514 67.5126 155.697 65.8535 152.668C65.2579 151.601 64.1944 150.748 62.7055 150.151C61.2165 149.596 59.5149 149.297 57.558 149.34C53.0486 149.382 49.0923 150.791 45.6465 153.564ZM39.393 161.074C39.6908 157.276 41.3073 154.161 44.3277 151.772C47.7736 148.998 52.0277 147.59 57.09 147.548C59.4298 147.505 61.5143 147.846 63.2585 148.572C65.1728 149.34 66.4916 150.407 67.2999 151.857C69.2142 155.271 69.6396 158.471 68.6612 161.5C67.6827 164.53 65.1728 167.517 61.2165 170.461C58.3237 172.594 55.0055 173.618 51.3045 173.618C47.4758 173.576 44.4554 172.381 42.2432 170.034C40.0736 167.645 39.0952 164.658 39.393 161.074Z" fill="#87729C" stroke="#87729C" stroke-width="3" stroke-miterlimit="10"/>
  <path d="M38.2444 111.792C38.0317 112.346 37.819 113.498 37.6488 115.205C37.4361 117.04 37.351 118.832 37.351 120.539C37.351 123.227 37.6063 125.061 38.1167 125.958C38.4145 126.427 39.3504 126.811 40.9245 127.11L45.136 126.982C46.1145 126.598 47.0504 125.787 47.9437 124.507C48.752 123.355 49.1349 122.416 49.1349 121.733V121.52C48.4542 119.088 46.625 116.784 43.6896 114.65C41.3499 112.858 39.5206 111.92 38.2444 111.792ZM37.351 110.255C37.819 109.999 38.7123 110.085 39.9886 110.554C41.3073 111.066 42.6686 111.834 44.115 112.858C47.8161 115.461 50.0708 118.277 50.9216 121.307C51.2194 122.373 50.7514 123.739 49.5603 125.445C48.3691 127.152 47.0929 128.262 45.7316 128.774C44.3277 129.328 42.541 129.371 40.4565 128.944C38.372 128.518 37.0532 127.835 36.5427 126.896C35.7345 125.488 35.4367 122.459 35.6919 117.893C35.9046 113.328 36.5002 110.768 37.351 110.255Z" fill="#87729C" stroke="#87729C" stroke-width="3" stroke-miterlimit="10"/>
  <path d="M14.5065 125.574C15.4849 124.549 17.9523 124.507 21.9086 125.446C25.95 126.384 28.8428 127.75 30.6295 129.542C31.4803 130.395 31.6505 132.187 31.1826 134.918C30.7146 137.734 29.8212 139.569 28.545 140.422C27.0986 141.404 25.3119 141.873 23.1849 141.873C21.1003 141.873 19.6539 141.446 18.8457 140.508C18.165 139.739 17.144 137.35 15.7402 133.297C14.2087 128.902 13.7833 126.342 14.5065 125.574ZM17.1866 126.47C16.591 126.47 16.123 126.555 15.8253 126.683V126.811C15.8253 127.835 16.3783 129.968 17.4418 133.297C18.5479 136.625 19.3562 138.63 19.8667 139.227C20.3346 139.782 21.3981 140.038 23.0147 139.995C24.7589 139.953 26.2053 139.526 27.3539 138.758C27.9069 138.417 28.3749 137.777 28.7577 136.881C29.1831 135.985 29.4809 134.961 29.6511 133.851C29.7362 133.083 29.7787 132.443 29.7362 131.846C29.6936 131.376 29.6085 131.078 29.5235 130.95C28.545 129.968 26.6732 128.987 23.9506 128.006C21.228 127.024 18.9733 126.47 17.1866 126.47Z" fill="#87729C" stroke="#87729C" stroke-width="3" stroke-miterlimit="10"/>
  <path d="M13.528 150.748C11.1457 151.687 9.4441 152.625 8.42312 153.607C7.91263 154.076 7.65738 154.503 7.69992 154.801C7.785 155.868 9.06124 157.191 11.5712 158.727C13.996 160.22 15.9103 161.031 17.3567 161.116C18.9307 161.244 20.207 160.818 21.1854 159.836C22.0788 158.983 22.5893 157.874 22.7594 156.551V155.911C22.7594 155.185 22.6318 154.46 22.3766 153.735C22.1213 152.967 21.7385 152.327 21.2705 151.729C20.2921 150.492 19.1435 149.767 17.7821 149.639C17.1015 149.511 15.6976 149.895 13.528 150.748ZM10.8054 160.178C7.74246 158.343 6.16845 156.594 6.08336 154.929C5.99828 153.479 7.5723 151.9 10.8905 150.151C14.0385 148.486 16.4208 147.761 18.1225 147.932C19.7816 148.102 21.313 148.999 22.802 150.62C24.4611 152.455 25.1417 154.375 24.8865 156.466C24.6312 158.386 23.823 159.964 22.4617 161.202C21.0578 162.439 19.3987 162.994 17.5694 162.823C15.7827 162.695 13.528 161.842 10.8054 160.178Z" fill="#87729C" stroke="#87729C" stroke-width="3" stroke-miterlimit="10"/>
  </g>
  <defs>
  <clipPath id="clip0_25_2735">
  <rect width="223" height="181" fill="white"/>
  </clipPath>
  </defs>
</svg>
