<svg width="100" height="100" viewBox="0 0 100 100" fill="none" xmlns="http://www.w3.org/2000/svg">
  <path d="M18.9613 37.1733C15.8257 29.113 18.1991 25.2562 19.7778 24.3353C23.2073 22.7103 23.8606 24.3353 25.9836 25.9604C28.1066 27.5855 33.6591 29.2105 34.639 26.9354C35.6189 24.6603 40.3548 20.7602 44.4376 22.3853C48.5203 24.0103 48.5203 24.3353 55.216 24.3353C61.9117 24.3353 62.0751 26.9354 63.8715 29.2105C65.6679 31.4856 67.6276 35.7108 73.9967 33.9232C80.3657 32.1356 83.7952 40.4234 80.0391 46.1111C76.283 51.7989 78.406 56.9991 81.8355 61.0617C85.265 65.1244 84.1219 67.7245 81.8355 71.4621C79.5492 75.1997 68.2808 77.9623 62.8916 77.9623C57.5024 77.9623 38.2318 77.7998 34.639 77.9623C31.0462 78.1249 26.6368 77.9623 19.7778 73.2497C12.9188 68.537 14.5519 62.3618 17.8181 56.9991C21.0843 51.6364 22.8807 47.2487 18.9613 37.1733Z" fill="#E5E7EB"/>
</svg>
